# xmcd
#
# Track frame offsets:
#       150
#       7887
#       18289
#       31001
#       51069
#       63910
#       77010
#       91211
#       104138
#       125170
#       138522
#       155196
#       164537
#       175004
#       185007
#       197356
#       214498
#
# Disc length: 3132 seconds
#
# Revision: 0
# Processed by: cddbd v1.4PL0 Copyright (c) Steve Scherf et al.
# Submitted via: WhereIsIt 3.26
#
DISCID=e60c3a11
DTITLE=John Mayall - Steppin' Out
DYEAR=1900
DGENRE=
TTITLE0=Stand Back Baby
TTITLE1=She's Too Young
TTITLE2=Mess Around
TTITLE3=I Can't Quit You Babe
TTITLE4=Hartley Quits
TTITLE5=Sitting in The Rain
TTITLE6=Don't Waste My Time
TTITLE7=The Supernatural
TTITLE8=The Bear
TTITLE9=Some Day After A While (You'll be Sorry)
TTITLE10=Change Your Ways
TTITLE11=Key To Love
TTITLE12=Parchman Farm
TTITLE13=Hit The Highway
TTITLE14=Suspicions (Part One)
TTITLE15=Checkin' Up On My Baby
TTITLE16=Laurel Canyon Home
EXTD=
EXTT0=
EXTT1=
EXTT2=
EXTT3=
EXTT4=
EXTT5=
EXTT6=
EXTT7=
EXTT8=
EXTT9=
EXTT10=
EXTT11=
EXTT12=
EXTT13=
EXTT14=
EXTT15=
EXTT16=
PLAYORDER=
